<?xml version="1.0" encoding="utf-8"?>
<!-- Generator: Adobe Illustrator 22.1.0, SVG Export Plug-In . SVG Version: 6.00 Build 0)  -->
<svg version="1.1" id="Layer_1" xmlns="http://www.w3.org/2000/svg" xmlns:xlink="http://www.w3.org/1999/xlink" x="0px" y="0px"
	 viewBox="0 0 244.8 145.4" style="enable-background:new 0 0 244.8 145.4;" xml:space="preserve">
<style type="text/css">
	.st0{fill:#FFFFFF;}
	.st1{fill:#8CC640;}
</style>
<g>
	<path class="st0" d="M38.1,91.9H22.8L0,25.3h20.4l12.8,42.2l13.1-42.2h14.6L38.1,91.9z"/>
	<path class="st0" d="M92.4,19.6H72.8V0h19.6V19.6z M92.4,91.9H72.8V25.3h19.6V91.9z"/>
	<path class="st1" d="M177.3,26.8c-2.6-0.4-3.6-0.5-5.3-0.5c-4.3,0-6.8,1.9-7.6,5.7c4.1,4.7,5.3,7.7,5.3,12.7
		c0,13-11.2,20.7-30,20.7c-4.2,0-7-0.3-10.8-0.9c-2.6,1.5-3.5,2.8-3.5,5c0,4.6,2.6,5.5,16.5,6.2c16.6,0.8,18,0.9,23.2,2.4
		c7.2,2.2,11.8,8.1,11.8,15.5c0,6.5-3.6,12.6-9.5,16.1c-6.8,4.2-15,5.8-28.8,5.8c-12.2,0-19.7-0.9-25.7-3.5c-5.5-2.2-9.1-6.9-9.1-12
		c0-6.1,3.6-9.9,11.5-12c-6.1-3.2-8.5-6.6-8.5-11.9c0-4.3,2.2-8.4,5.7-10.8c2.2-1.5,3.6-2.3,7.7-4.1c-8.1-3.6-11.8-8.6-11.8-16.2
		c0-12.8,11.9-20.9,30.7-20.9c6.6,0,10.3,0.5,17.6,2.8c1.5-10,4.9-13,15.1-13c2,0,3.1,0.1,5.4,0.5L177.3,26.8L177.3,26.8z
		 M128.1,91.7c-1.1-0.3-1.9-0.3-2.2-0.3c-2.6,0.3-4.9,2.8-4.9,5.5c0,4.7,5.3,6.5,19.2,6.5c13,0,18.2-1.8,18.2-6.4
		c0-4.3-5.1-5.3-25.8-5.3L128.1,91.7z M128.2,44.5c0,6.4,4.1,10.1,10.7,10.1c6.9,0,11.5-4.1,11.5-10.1c0-5.9-4.5-9.9-11.3-9.9
		C132.3,34.6,128.2,38.4,128.2,44.5z"/>
	<path class="st0" d="M244.8,58.8c0,20.4-13.2,34.5-32.3,34.5c-10,0-17.3-3.2-23.2-10.1c-5.7-6.8-8.2-14.5-8.2-25
		c0-20.4,12.7-34.2,31.5-34.2C232,23.9,244.8,37.7,244.8,58.8z M201.7,56.9c0,16.6,3.2,23.5,11.2,23.5c7.7,0,11.2-6.5,11.2-21.2
		c0-16.2-3.1-22.4-11.1-22.4S201.7,42.7,201.7,56.9z"/>
	<path class="st0" d="M4.4,124.2v16.4H2.3v-16.4H4.4z"/>
	<path class="st0" d="M8,132c0-1.2,0-2.2-0.1-3.2h1.9l0.1,2h0c0.6-1.1,1.9-2.2,3.9-2.2c1.6,0,4.2,1,4.2,5v7h-2.1v-6.8
		c0-1.9-0.7-3.5-2.7-3.5c-1.4,0-2.5,1-2.9,2.2c-0.1,0.3-0.1,0.6-0.1,1v7.1H8L8,132L8,132z"/>
	<path class="st0" d="M24.1,125.4v3.4h3.1v1.6h-3.1v6.4c0,1.5,0.4,2.3,1.6,2.3c0.6,0,1-0.1,1.2-0.1l0.1,1.6
		c-0.4,0.2-1.1,0.3-1.9,0.3c-1,0-1.8-0.3-2.3-0.9c-0.6-0.6-0.8-1.7-0.8-3.1v-6.4h-1.8v-1.6H22V126L24.1,125.4z"/>
	<path class="st0" d="M30.8,135.1c0,2.9,1.9,4.1,4,4.1c1.5,0,2.5-0.3,3.3-0.6l0.4,1.5c-0.8,0.3-2,0.7-3.9,0.7
		c-3.6,0-5.8-2.4-5.8-5.9s2.1-6.4,5.5-6.4c3.8,0,4.9,3.4,4.9,5.6c0,0.4,0,0.8-0.1,1H30.8z M37.1,133.6c0-1.4-0.6-3.5-3-3.5
		c-2.2,0-3.1,2-3.3,3.5H37.1z"/>
	<path class="st0" d="M41.8,132.5c0-1.4,0-2.6-0.1-3.7h1.9l0.1,2.3h0.1c0.5-1.6,1.8-2.6,3.3-2.6c0.2,0,0.4,0,0.6,0.1v2
		c-0.2,0-0.4-0.1-0.7-0.1c-1.5,0-2.6,1.1-2.9,2.8c0,0.3-0.1,0.6-0.1,1v6.3h-2.1V132.5z"/>
	<path class="st0" d="M51.9,134.2L51.9,134.2c0.3-0.4,0.8-0.9,1.1-1.3l3.5-4.1H59l-4.6,4.8l5.2,6.9h-2.6l-4.1-5.7l-1.1,1.2v4.4h-2.1
		v-17.3h2.1L51.9,134.2L51.9,134.2z"/>
	<path class="st0" d="M71.9,134.6c0,4.4-3,6.3-5.9,6.3c-3.2,0-5.7-2.3-5.7-6.1c0-3.9,2.6-6.3,5.8-6.3
		C69.6,128.5,71.9,131,71.9,134.6z M62.5,134.7c0,2.6,1.5,4.5,3.6,4.5c2,0,3.6-1.9,3.6-4.6c0-2-1-4.5-3.5-4.5
		C63.6,130.1,62.5,132.5,62.5,134.7z"/>
	<path class="st0" d="M74.6,132c0-1.2,0-2.2-0.1-3.2h1.9l0.1,1.9h0.1c0.7-1.1,1.8-2.2,3.7-2.2c1.6,0,2.8,1,3.3,2.4h0
		c0.4-0.7,0.8-1.2,1.3-1.5c0.7-0.5,1.5-0.8,2.6-0.8c1.6,0,3.9,1,3.9,5.1v6.9h-2.1v-6.7c0-2.3-0.8-3.6-2.6-3.6
		c-1.2,0-2.2,0.9-2.5,1.9c-0.1,0.3-0.2,0.7-0.2,1.1v7.3h-2.1v-7.1c0-1.9-0.8-3.2-2.5-3.2c-1.3,0-2.3,1.1-2.7,2.1
		c-0.1,0.3-0.2,0.7-0.2,1v7.1h-2.1L74.6,132L74.6,132z"/>
	<path class="st0" d="M94.9,132c0-1.2,0-2.2-0.1-3.2h1.9l0.1,1.9h0.1c0.7-1.1,1.8-2.2,3.7-2.2c1.6,0,2.8,1,3.3,2.4h0
		c0.4-0.7,0.8-1.2,1.3-1.5c0.7-0.5,1.5-0.8,2.6-0.8c1.6,0,3.9,1,3.9,5.1v6.9h-2.1v-6.7c0-2.3-0.8-3.6-2.6-3.6
		c-1.2,0-2.2,0.9-2.5,1.9c-0.1,0.3-0.2,0.7-0.2,1.1v7.3h-2.1v-7.1c0-1.9-0.8-3.2-2.5-3.2c-1.3,0-2.3,1.1-2.7,2.1
		c-0.1,0.3-0.2,0.7-0.2,1v7.1h-2.1L94.9,132L94.9,132z"/>
	<path class="st0" d="M125.1,137.4c0,1.2,0,2.3,0.1,3.2h-1.9l-0.1-1.9h0c-0.6,0.9-1.8,2.2-3.9,2.2c-1.9,0-4.1-1-4.1-5.2v-6.9h2.1
		v6.5c0,2.2,0.7,3.8,2.6,3.8c1.4,0,2.4-1,2.8-2c0.1-0.3,0.2-0.7,0.2-1.1v-7.2h2.1L125.1,137.4L125.1,137.4z"/>
	<path class="st0" d="M128.6,132c0-1.2,0-2.2-0.1-3.2h1.9l0.1,2h0c0.6-1.1,1.9-2.2,3.9-2.2c1.6,0,4.2,1,4.2,5v7h-2.1v-6.8
		c0-1.9-0.7-3.5-2.7-3.5c-1.4,0-2.5,1-2.9,2.2c-0.1,0.3-0.1,0.6-0.1,1v7.1h-2.1V132L128.6,132z"/>
	<path class="st0" d="M148.7,140.6l-0.2-1.5h-0.1c-0.7,0.9-1.9,1.8-3.6,1.8c-2.4,0-3.6-1.7-3.6-3.4c0-2.8,2.5-4.4,7.1-4.4v-0.2
		c0-1-0.3-2.7-2.7-2.7c-1.1,0-2.2,0.3-3.1,0.9l-0.5-1.4c1-0.6,2.4-1,3.9-1c3.6,0,4.5,2.5,4.5,4.8v4.4c0,1,0,2,0.2,2.8H148.7z
		 M148.4,134.6c-2.3,0-5,0.4-5,2.7c0,1.4,0.9,2,2,2c1.5,0,2.5-1,2.9-2c0.1-0.2,0.1-0.5,0.1-0.7L148.4,134.6L148.4,134.6z"/>
	<path class="st0" d="M153.9,123.3h2.1v17.3h-2.1V123.3z"/>
	<path class="st0" d="M162.2,125.4v3.4h3.1v1.6h-3.1v6.4c0,1.5,0.4,2.3,1.6,2.3c0.6,0,1-0.1,1.2-0.1l0.1,1.6
		c-0.4,0.2-1.1,0.3-1.9,0.3c-1,0-1.8-0.3-2.3-0.9c-0.6-0.6-0.8-1.7-0.8-3.1v-6.4h-1.8v-1.6h1.8V126L162.2,125.4z"/>
	<path class="st0" d="M172.6,138.4c0.6,0.4,1.8,0.9,2.8,0.9c1.6,0,2.3-0.8,2.3-1.8c0-1-0.6-1.6-2.2-2.2c-2.1-0.8-3.1-1.9-3.1-3.3
		c0-1.9,1.5-3.5,4.1-3.5c1.2,0,2.2,0.3,2.9,0.7l-0.5,1.6c-0.5-0.3-1.3-0.7-2.4-0.7c-1.3,0-2,0.7-2,1.6c0,1,0.7,1.4,2.2,2
		c2,0.8,3.1,1.8,3.1,3.6c0,2.1-1.6,3.5-4.4,3.5c-1.3,0-2.5-0.3-3.3-0.8L172.6,138.4z"/>
	<path class="st0" d="M183.7,135.1c0,2.9,1.9,4.1,4,4.1c1.5,0,2.5-0.3,3.3-0.6l0.4,1.5c-0.8,0.3-2,0.7-3.9,0.7
		c-3.6,0-5.8-2.4-5.8-5.9s2.1-6.4,5.5-6.4c3.9,0,4.9,3.4,4.9,5.6c0,0.4-0.1,0.8-0.1,1H183.7z M190,133.6c0-1.4-0.6-3.5-3-3.5
		c-2.2,0-3.1,2-3.3,3.5H190z"/>
	<path class="st0" d="M194.7,123.3h2.1v17.3h-2.1V123.3z"/>
	<path class="st0" d="M200.2,138.4c0.6,0.4,1.8,0.9,2.8,0.9c1.6,0,2.3-0.8,2.3-1.8c0-1-0.6-1.6-2.2-2.2c-2.1-0.8-3.1-1.9-3.1-3.3
		c0-1.9,1.5-3.5,4.1-3.5c1.2,0,2.2,0.3,2.9,0.7l-0.5,1.6c-0.5-0.3-1.3-0.7-2.4-0.7c-1.3,0-2,0.7-2,1.6c0,1,0.7,1.4,2.2,2
		c2,0.8,3.1,1.8,3.1,3.6c0,2.1-1.6,3.5-4.4,3.5c-1.3,0-2.5-0.3-3.3-0.8L200.2,138.4z"/>
	<path class="st0" d="M212.2,134.2L212.2,134.2c0.3-0.4,0.8-0.9,1.1-1.3l3.5-4.1h2.6l-4.6,4.8l5.2,6.9h-2.6l-4.1-5.7l-1.1,1.2v4.4
		h-2.1v-17.3h2.1L212.2,134.2L212.2,134.2z"/>
	<path class="st0" d="M228.1,140.6l-0.2-1.5h-0.1c-0.7,0.9-1.9,1.8-3.6,1.8c-2.4,0-3.6-1.7-3.6-3.4c0-2.8,2.5-4.4,7.1-4.4v-0.2
		c0-1-0.3-2.7-2.7-2.7c-1.1,0-2.2,0.3-3.1,0.9l-0.5-1.4c1-0.6,2.4-1,3.9-1c3.6,0,4.5,2.5,4.5,4.8v4.4c0,1,0,2,0.2,2.8H228.1z
		 M227.8,134.6c-2.3,0-5,0.4-5,2.7c0,1.4,0.9,2,2,2c1.5,0,2.5-1,2.9-2c0.1-0.2,0.1-0.5,0.1-0.7L227.8,134.6L227.8,134.6z"/>
	<path class="st0" d="M233.3,132.7c0-1.5,0-2.7-0.1-3.9h1.9l0.1,2h0c0.9-1.4,2.3-2.3,4.2-2.3c2.9,0,5,2.4,5,6c0,4.2-2.6,6.3-5.4,6.3
		c-1.6,0-2.9-0.7-3.6-1.9h0v6.4h-2.1V132.7z M235.4,135.8c0,0.3,0,0.6,0.1,0.9c0.4,1.5,1.7,2.5,3.2,2.5c2.3,0,3.6-1.9,3.6-4.6
		c0-2.4-1.2-4.4-3.5-4.4c-1.5,0-2.8,1.1-3.2,2.7c-0.1,0.3-0.1,0.6-0.1,0.9V135.8z"/>
</g>
</svg>
